<?xml version="1.0" encoding="UTF-8"?><svg xmlns="http://www.w3.org/2000/svg" viewBox="0 0 235.83 269.29"><defs><style>.d{fill:#ee252d;}.e{fill:#231f20;}</style></defs><g id="a"/><g id="b"><g id="c"><g><g><path class="d" d="M196.42,169.99c-16.87,0-30.59-13.72-30.59-30.59s13.72-30.59,30.59-30.59,30.59,13.72,30.59,30.59-13.72,30.59-30.59,30.59Zm0-56.76c-14.43,0-26.17,11.74-26.17,26.17s11.74,26.17,26.17,26.17,26.17-11.74,26.17-26.17-11.74-26.17-26.17-26.17Z"/><path class="d" d="M196.42,151.42c-6.63,0-12.02-5.39-12.02-12.02s5.39-12.02,12.02-12.02,12.02,5.39,12.02,12.02-5.39,12.02-12.02,12.02Zm0-19.61c-4.18,0-7.59,3.4-7.59,7.59s3.4,7.59,7.59,7.59,7.59-3.4,7.59-7.59-3.4-7.59-7.59-7.59Z"/><path class="d" d="M68.23,148.49H13.44c-1.22,0-2.21-.99-2.21-2.21v-5.95c0-16.33,13.28-29.61,29.61-29.61s29.61,13.28,29.61,29.61v5.95c0,1.22-.99,2.21-2.21,2.21Zm-52.58-4.43h50.36v-3.74c0-13.89-11.3-25.18-25.18-25.18s-25.18,11.3-25.18,25.18v3.74Z"/><path class="d" d="M68.23,164.08H13.44c-1.22,0-2.21-.99-2.21-2.21v-7.81c0-1.22,.99-2.21,2.21-2.21h54.79c1.22,0,2.21,.99,2.21,2.21v7.81c0,1.22-.99,2.21-2.21,2.21Zm-52.58-4.43h50.36v-3.39H15.65v3.39Z"/><path class="d" d="M213.18,19.25H22.65C10.16,19.25,0,29.41,0,41.9v116.38c0,12.48,10.16,22.65,22.65,22.65H213.18c12.49,0,22.65-10.17,22.65-22.65V41.9c0-12.49-10.16-22.65-22.65-22.65Zm18.22,139.03c0,10.05-8.17,18.22-18.22,18.22H22.65c-10.05,0-18.22-8.17-18.22-18.22V41.9c0-10.05,8.17-18.22,18.22-18.22H213.18c10.05,0,18.22,8.17,18.22,18.22v116.38Z"/><path class="d" d="M224.15,100.09c0,1.22-.99,2.21-2.21,2.21h-63v61.62c0,1.22-1,2.21-2.21,2.21s-2.21-.99-2.21-2.21v-61.62H81.53v61.62c0,1.22-.99,2.21-2.21,2.21s-2.21-.99-2.21-2.21v-61.62H14.05c-1.22,0-2.21-.99-2.21-2.21s1-2.21,2.21-2.21h63.06V36.25c0-1.22,.99-2.21,2.21-2.21s2.21,1,2.21,2.21v61.63h72.98V36.25c0-1.22,.99-2.21,2.21-2.21s2.21,1,2.21,2.21v61.63h63c1.22,0,2.21,.99,2.21,2.21Z"/><path class="d" d="M40.83,91.18c-1.99,0-3.61-.94-5.05-1.76-.78-.45-1.52-.87-2.14-1.04-.68-.18-1.56-.19-2.49-.19-1.63,0-3.48-.02-5.15-.98-1.68-.97-2.62-2.58-3.44-4.01-.46-.8-.9-1.55-1.38-2.03s-1.23-.91-2.03-1.38c-1.42-.83-3.03-1.76-4.01-3.44-.96-1.66-.97-3.51-.98-5.15,0-.94,0-1.82-.19-2.49-.17-.62-.59-1.36-1.04-2.14-.83-1.44-1.76-3.07-1.76-5.05s.94-3.61,1.76-5.05c.45-.78,.88-1.52,1.04-2.14,.18-.67,.18-1.56,.19-2.49,0-1.63,.02-3.49,.98-5.15,.97-1.68,2.58-2.62,4.01-3.44,.8-.46,1.55-.9,2.03-1.38,.48-.48,.92-1.23,1.38-2.03,.82-1.42,1.76-3.03,3.44-4.01,1.66-.96,3.51-.97,5.15-.98,.94,0,1.82,0,2.49-.19,.62-.17,1.36-.59,2.15-1.04,1.44-.83,3.07-1.76,5.05-1.76s3.61,.94,5.05,1.76c.78,.45,1.52,.88,2.14,1.04,.68,.18,1.56,.19,2.49,.19,1.63,0,3.48,.02,5.15,.98,1.68,.97,2.62,2.58,3.44,4.01,.46,.8,.9,1.55,1.38,2.03s1.23,.91,2.03,1.38c1.42,.82,3.03,1.76,4.01,3.44,.96,1.66,.97,3.51,.98,5.15,0,.94,0,1.82,.19,2.49,.17,.62,.59,1.36,1.04,2.15,.83,1.44,1.76,3.07,1.76,5.05s-.94,3.61-1.76,5.05c-.45,.78-.88,1.52-1.04,2.14-.18,.67-.18,1.56-.19,2.49,0,1.63-.02,3.49-.98,5.15-.97,1.68-2.58,2.62-4.01,3.44-.8,.46-1.55,.9-2.03,1.38-.48,.48-.92,1.23-1.38,2.03-.82,1.42-1.76,3.03-3.44,4.01-1.66,.96-3.51,.97-5.15,.98-.94,0-1.82,0-2.49,.19-.62,.17-1.36,.59-2.14,1.04-1.44,.83-3.07,1.76-5.05,1.76Zm0-54.9c-.8,0-1.79,.57-2.84,1.17-1,.57-2.03,1.16-3.21,1.48-1.23,.33-2.5,.33-3.62,.34-1.19,0-2.31,.01-2.95,.38-.66,.38-1.23,1.36-1.83,2.4-.59,1.01-1.19,2.05-2.08,2.94s-1.93,1.49-2.94,2.08c-1.04,.6-2.01,1.17-2.4,1.83-.37,.64-.38,1.76-.38,2.95,0,1.12-.01,2.39-.34,3.62-.32,1.18-.91,2.21-1.48,3.21-.6,1.05-1.17,2.04-1.17,2.84s.57,1.79,1.17,2.84c.57,1,1.16,2.02,1.48,3.21,.33,1.23,.33,2.5,.34,3.62,0,1.19,.01,2.31,.38,2.95,.38,.66,1.36,1.23,2.4,1.83,1.01,.58,2.05,1.19,2.94,2.07,.89,.89,1.49,1.93,2.08,2.94,.6,1.04,1.17,2.01,1.83,2.4,.64,.37,1.76,.38,2.95,.38,1.12,0,2.39,.01,3.62,.34,1.18,.32,2.21,.91,3.21,1.48,1.05,.6,2.04,1.17,2.85,1.17s1.8-.57,2.85-1.17c.99-.57,2.02-1.16,3.21-1.48,1.23-.33,2.5-.33,3.62-.34,1.19,0,2.31-.01,2.95-.38,.66-.38,1.23-1.36,1.83-2.4,.59-1.01,1.19-2.05,2.08-2.94,.89-.89,1.93-1.49,2.94-2.08,1.04-.6,2.01-1.17,2.4-1.83,.37-.64,.38-1.76,.38-2.95,0-1.12,.01-2.39,.34-3.62,.32-1.18,.91-2.21,1.48-3.21,.6-1.05,1.17-2.04,1.17-2.84s-.57-1.79-1.17-2.84c-.57-1-1.16-2.03-1.48-3.21-.33-1.23-.33-2.5-.34-3.62,0-1.19-.01-2.31-.38-2.95-.38-.66-1.36-1.23-2.4-1.83-1.01-.59-2.05-1.19-2.94-2.08-.89-.89-1.49-1.93-2.08-2.94-.6-1.04-1.17-2.01-1.83-2.4-.64-.37-1.76-.38-2.95-.38-1.12,0-2.39-.01-3.62-.34-1.18-.32-2.21-.91-3.21-1.48-1.05-.6-2.04-1.17-2.84-1.17Z"/><path class="e" d="M101.29,89.29c.07,.08,.13,.15,.21,.21-.02-.01-.04-.03-.05-.04-.05-.05-.1-.11-.15-.17Z"/><path class="e" d="M142.56,44.67c.05-.05,.11-.1,.17-.15-.08,.07-.15,.13-.21,.2l.04-.05Z"/><path class="d" d="M118,169.41c-5.5,0-8.54-5.19-11.22-9.77-1.24-2.12-2.41-4.12-3.66-5.36s-3.25-2.42-5.36-3.66c-4.58-2.68-9.77-5.72-9.77-11.22s5.19-8.54,9.77-11.22c2.12-1.24,4.12-2.41,5.36-3.66s2.42-3.25,3.66-5.36c2.68-4.58,5.72-9.77,11.22-9.77s8.54,5.19,11.22,9.77c1.24,2.12,2.41,4.12,3.66,5.36s3.25,2.42,5.36,3.66c4.58,2.68,9.77,5.72,9.77,11.22s-5.19,8.54-9.77,11.22c-2.12,1.24-4.12,2.41-5.36,3.66s-2.42,3.25-3.66,5.36c-2.68,4.58-5.72,9.77-11.22,9.77Zm0-55.59c-2.96,0-5.22,3.85-7.4,7.58-1.33,2.27-2.7,4.61-4.35,6.26s-3.99,3.02-6.26,4.35c-3.73,2.18-7.58,4.44-7.58,7.4s3.85,5.22,7.58,7.4c2.27,1.33,4.61,2.7,6.26,4.35s3.02,3.99,4.35,6.26c2.18,3.73,4.44,7.58,7.4,7.58s5.22-3.85,7.4-7.58c1.33-2.27,2.7-4.61,4.35-6.26s3.99-3.02,6.26-4.35c3.73-2.18,7.58-4.44,7.58-7.4s-3.85-5.22-7.58-7.4c-2.27-1.33-4.61-2.7-6.26-4.35s-3.02-3.99-4.35-6.26c-2.18-3.73-4.44-7.58-7.4-7.58Z"/><path class="d" d="M223.61,76.34l-14.4-14.22-13.63-13.46h-.01l-14.38-14.22c-.93-.92-2.43-.91-3.36,.01-12.47,12.63-12.34,33.06,.29,45.52,6.07,5.99,14.09,9.29,22.61,9.29h.21c8.6-.06,16.66-3.45,22.71-9.58,.91-.93,.91-2.43-.02-3.36Zm-19.71-12.79c-2.67,1.31-6,.87-8.23-1.34-2.24-2.21-2.72-5.53-1.45-8.22l9.68,9.56Zm-3,20.97c-.06,0-.12,0-.18,0-7.26,0-14.1-2.81-19.28-7.92-10.2-10.07-10.84-26.22-1.84-37.05l11.12,10.98c-3.05,4.66-2.51,10.99,1.61,15.05,2.32,2.29,5.36,3.44,8.39,3.44,2.33,0,4.66-.67,6.67-2.02l11.12,10.98c-4.91,4.19-11.08,6.5-17.62,6.54Z"/><path class="d" d="M181.07,17.38v2.43c0,2.13-1.73,3.87-3.87,3.87h-18.36c-2.13,0-3.87-1.74-3.87-3.87v-2.43c0-2.13,1.74-3.87,3.87-3.87h4.5c-8.48-4.74-24.85-8.51-45.43-8.51s-36.95,3.77-45.43,8.51h4.09c2.13,0,3.86,1.74,3.86,3.87v2.43c0,2.13-1.73,3.87-3.86,3.87h-18.37c-2.13,0-3.87-1.74-3.87-3.87v-2.43c0-2.13,1.74-3.87,3.87-3.87h6.12c2.89-3.08,7.74-5.79,14.41-8.03C89.23,1.94,103.15,0,117.91,0c22.1,0,45.32,4.69,53.6,13.51h5.69c2.14,0,3.87,1.74,3.87,3.87Z"/><g><path class="d" d="M146.19,45.87c-.11-.19-.24-.38-.41-.54-.05-.05-.11-.1-.17-.15-.05-.05-.11-.1-.18-.13-.06-.04-.12-.07-.18-.11-.07-.04-.15-.07-.21-.1-.09-.04-.18-.07-.27-.09-.08-.02-.17-.04-.26-.05,0,0-.01,0-.02,0-.08,0-.17-.01-.26-.01h-.01c-.1,0-.18,0-.28,.02-.06,0-.11,.01-.16,.03-.06,0-.12,.02-.18,.04-.02,0-.04,0-.05,.01-.07,.02-.14,.05-.21,.08-.1,.04-.19,.09-.28,.15-.08,.05-.16,.11-.24,.17-.08,.07-.15,.13-.21,.2l-41.07,41.59s-.04,.04-.05,.06c-.09,.09-.16,.18-.23,.29-.04,.07-.1,.15-.13,.24-.04,.09-.09,.18-.12,.28-.02,.07-.04,.13-.05,.2-.02,.08-.04,.16-.04,.24,0,.09-.01,.17-.01,.25,0,.1,0,.2,.02,.3,0,.07,.02,.13,.04,.19,0,.05,.02,.1,.04,.15,0,.01,0,.02,.01,.04,.02,.07,.04,.14,.07,.21,.04,.09,.09,.18,.14,.27,.05,.09,.11,.17,.18,.25h0c.07,.09,.13,.15,.21,.22,.07,.07,.15,.13,.24,.18,.14,.1,.29,.18,.44,.24,.78,.37,1.62,.55,2.5,.55h36.22c3.32,0,6.02-2.7,6.02-6.02V48.92c0-1.08-.29-2.12-.83-3.05Zm-3.59,39.26c0,.88-.72,1.59-1.59,1.59h-32.98l34.57-35.01v33.42Z"/><path class="d" d="M94.3,79.61h-1.73c-1.99,0-3.61-1.62-3.61-3.61V39.87c.12-2.59,2.23-6.43,7.55-6.43h31.64c.28,0,.53,0,.8,0,1.91-.03,5.86-.1,6.93,3.42,.54,1.77,.28,3.77-.71,5.49-.6,1.03-1.78,2.02-3.03,3.08-.61,.51-1.53,1.28-1.79,1.62-.08,.2-.16,.51-.25,.83-.62,2.19-1.78,6.24-7.52,7.94-1.07,.46-1.32,1.18-1.35,1.26-.12,.45-1.26,4.57-4.6,6.61-1.28,.78-2.28,1.13-3.07,1.42-.68,.24-1.02,.37-1.34,.63-.27,.21-.5,.54-.69,.95-.33,.74-.63,1.59-.64,1.6-.11,.28-2.07,5.09-6.73,6.26-1.38,.35-1.99,.8-2.17,.96l-.05,.12,.03-.1s-.02,.02-.03,.03l-.16,.24c-1.71,2.4-4.51,3.84-7.48,3.84Zm7.68-4.12l-.03,.04,.02-.03h0Zm-8.71-.19h1.04c1.58,0,3.07-.76,3.98-2.04l.14-.2c.34-.51,1.54-1.93,4.7-2.72,2.48-.62,3.73-3.55,3.75-3.62h0s.34-.95,.73-1.82c.46-1.04,1.11-1.9,1.91-2.55,.91-.73,1.77-1.04,2.6-1.33,.67-.24,1.37-.48,2.27-1.04,1.57-.96,2.47-3.23,2.68-4.03,.05-.23,.74-2.91,4-4.2l.2-.07c3.55-1.01,4.13-3.05,4.69-5.01,.14-.49,.27-.96,.46-1.39,.43-1.01,1.4-1.87,2.96-3.17,.69-.58,1.85-1.55,2.08-1.94,.4-.69,.51-1.45,.32-2.09-.05-.15-.47-.4-2.74-.37-.35,0-.67,0-.94,0h-31.57c-2.9,0-3.22,1.83-3.25,2.3v35.28Z"/></g></g><g><g><path class="d" d="M7.34,224.92c0-12.16,7.1-19.26,18.34-19.26,9.76,0,15.62,5.19,16.73,14.39l-8.46,1.67c-.99-5.43-3.4-8.27-8.52-8.27-6.55,0-9.26,5-9.26,11.48,0,7.35,2.78,11.85,9.2,11.85,5.43,0,7.66-2.9,8.77-8.4l8.4,1.42c-1.11,9.26-7.22,14.63-17.1,14.63-11.48,0-18.09-7.29-18.09-19.51Z"/><path class="d" d="M45.61,228.93c0-9.75,5.8-15.44,15.13-15.44s15,5.68,15,15.44-5.68,15.5-15,15.5-15.13-5.87-15.13-15.5Zm8.4-.06c0,5.31,1.91,8.4,6.67,8.4s6.67-3.09,6.67-8.4-2.04-8.34-6.67-8.34-6.67,3.03-6.67,8.34Z"/><path class="d" d="M87.21,243.57h-8.4v-39.64h8.4v39.64Z"/><path class="d" d="M100.69,243.57h-8.4v-39.64h8.4v39.64Z"/><path class="d" d="M123.1,236.59h-.74c-1.48,4.63-4.57,7.59-9.57,7.59s-8.58-2.53-8.58-8.27c0-5.25,3.09-8.89,10.8-8.89h7.66v-2.04c0-3.03-1.3-4.75-4.51-4.75-2.78,0-4.38,1.36-4.94,4.2l-7.9-1.79c.99-5.31,5.06-9.08,13.15-9.08,8.89,0,12.53,4.08,12.53,11.42v18.59h-7.9v-6.98Zm-.43-4.26v-1.17h-6.05c-2.72,0-4.45,1.24-4.45,3.27,0,1.85,1.05,3.33,4.26,3.33,3.83,0,6.24-2.28,6.24-5.43Z"/><path class="d" d="M137.07,220.97h-3.58v-6.67h3.58v-7.53h8.4v7.53h7.72v6.67h-7.72v12.04c0,2.35,.86,3.52,3.4,3.52,1.3,0,2.72-.37,3.83-.74l.93,7.53c-2.22,.68-3.7,1.11-6.92,1.11-6.79,0-9.63-4.51-9.63-10.06v-13.4Z"/><path class="d" d="M156.91,210.16v-6.05h8.77v6.05h-8.77Zm.19,33.4v-29.27h8.4v29.27h-8.4Z"/><path class="d" d="M168.47,228.93c0-9.75,5.8-15.44,15.13-15.44s15,5.68,15,15.44-5.68,15.5-15,15.5-15.13-5.87-15.13-15.5Zm8.4-.06c0,5.31,1.91,8.4,6.67,8.4s6.67-3.09,6.67-8.4-2.04-8.34-6.67-8.34-6.67,3.03-6.67,8.34Z"/><path class="d" d="M209.95,243.57h-8.4v-29.27h8.21v7.84h.56c1.73-5.68,5.31-8.64,9.88-8.64,5.62,0,8.46,3.89,8.46,10.25v19.82h-8.4v-17.47c0-2.96-1.36-5-4.45-5-3.58,0-5.87,2.53-5.87,6.17v16.3Z"/></g><g><path class="d" d="M23.62,259.99c.34,1.31,.65,2.7,.91,4.13h.36c.28-1.41,.62-2.7,.99-4.17l.85-3.67h2.16l-2.82,9.48h-2.84l-.99-4.13c-.28-1.23-.54-2.48-.75-3.75h-.32c-.22,1.25-.48,2.54-.75,3.75l-.95,4.13h-2.78l-2.82-9.48h2.24l.95,3.67c.38,1.45,.73,2.76,1.01,4.17h.36c.26-1.41,.56-2.8,.91-4.13l.91-3.71h2.46l.93,3.71Z"/><path class="d" d="M32.15,265.76h-2.16v-12.95h2.16v5.97h.16c.55-1.73,1.69-2.74,3.35-2.74,1.96,0,2.88,1.33,2.88,3.39v6.33h-2.16v-5.77c0-1.15-.52-2-1.79-2-1.47,0-2.44,.97-2.44,2.4v5.36Z"/><path class="d" d="M46.49,263.5h-.22c-.48,1.53-1.57,2.46-3.25,2.46s-2.88-.81-2.88-2.66c0-1.69,1.03-2.92,3.43-2.92h2.82v-.64c0-1.23-.5-1.94-1.83-1.94-1.11,0-1.75,.56-2,1.67l-2.06-.46c.36-1.79,1.71-2.94,4.13-2.94,2.74,0,3.91,1.29,3.91,3.65v6.05h-2.06v-2.26Zm-.1-1.31v-.38h-2.46c-1.09,0-1.71,.4-1.71,1.19,0,.69,.42,1.27,1.65,1.27,1.51,0,2.52-.89,2.52-2.08Z"/><path class="d" d="M51.29,258.03h-1.33v-1.75h1.33v-2.56h2.18v2.56h2.78v1.75h-2.78v4.54c0,.93,.34,1.41,1.29,1.41,.48,0,.91-.1,1.37-.24l.26,1.94c-.71,.22-1.19,.34-2.14,.34-2.08,0-2.96-1.37-2.96-3.15v-4.84Z"/><path class="d" d="M60.42,253.66l-1.86,5.59h-1.21v-.12l.83-5.46h2.24Z"/><path class="d" d="M60.16,262.95l1.96-.4c.3,1.15,.97,1.87,2.5,1.87,1.15,0,1.75-.4,1.75-1.21,0-.75-.52-1.11-2.4-1.45-2.52-.5-3.41-1.35-3.41-2.92,0-1.71,1.25-2.8,3.77-2.8s3.49,1.07,3.87,2.74l-1.96,.42c-.26-1.17-.83-1.61-1.96-1.61s-1.67,.42-1.67,1.13c0,.67,.4,1.13,2.2,1.45,2.8,.52,3.65,1.47,3.65,2.96,0,1.75-1.17,2.88-3.89,2.88-3.06,0-4.07-1.25-4.42-3.06Z"/><path class="d" d="M73.99,254.67v-1.75h2.36v1.75h-2.36Zm.08,11.09v-9.48h2.18v9.48h-2.18Z"/><path class="d" d="M80.81,265.76h-2.16v-9.48h2.12v2.5h.18c.52-1.75,1.73-2.74,3.33-2.74,1.98,0,2.92,1.33,2.92,3.39v6.33h-2.16v-5.77c0-1.15-.5-2-1.81-2-1.45,0-2.42,.97-2.42,2.4v5.36Z"/><path class="d" d="M92.12,269.17l.34-1.96c.4,.08,.81,.14,1.21,.14,1.07,0,1.63-.26,2.26-1.69l-3.81-9.38h2.38l1.11,3.43c.38,1.19,.91,2.76,1.31,4.13h.32c.42-1.41,.89-2.92,1.25-4.09l1.03-3.47h2.32l-3.91,9.6c-.97,2.36-2.14,3.41-4.32,3.41-.63,0-1.05-.06-1.49-.12Z"/><path class="d" d="M102.43,261c0-3.13,1.87-4.96,4.82-4.96s4.78,1.83,4.78,4.96-1.77,5.02-4.78,5.02-4.82-1.92-4.82-5.02Zm2.18-.02c0,1.96,.81,3.17,2.62,3.17s2.64-1.21,2.64-3.17-.89-3.11-2.64-3.11-2.62,1.15-2.62,3.11Z"/><path class="d" d="M120.11,263.26h-.2c-.52,1.75-1.73,2.76-3.31,2.76-2,0-2.94-1.35-2.94-3.41v-6.33h2.18v5.77c0,1.15,.5,2,1.79,2,1.47,0,2.42-.97,2.42-2.4v-5.36h2.18v9.48h-2.12v-2.5Z"/><path class="d" d="M124.49,265.76v-9.48h2.06v2.84l.18,.02c.55-2.3,1.43-2.96,2.8-2.96h.34v2.44h-.52c-2,0-2.7,.71-2.7,2.64v4.5h-2.16Z"/><path class="d" d="M137.39,265.76h-2.18v-12.95h2.18v12.95Z"/><path class="d" d="M146.09,263.26h-.2c-.52,1.75-1.73,2.76-3.31,2.76-2,0-2.94-1.35-2.94-3.41v-6.33h2.18v5.77c0,1.15,.5,2,1.79,2,1.47,0,2.42-.97,2.42-2.4v-5.36h2.18v9.48h-2.12v-2.5Z"/><path class="d" d="M152.62,265.76h-2.16v-9.48h2.12v2.5h.18c.52-1.75,1.73-2.74,3.33-2.74,1.98,0,2.92,1.33,2.92,3.39v6.33h-2.16v-5.77c0-1.15-.5-2-1.81-2-1.45,0-2.42,.97-2.42,2.4v5.36Z"/><path class="d" d="M165.36,257.95c-1.55,0-2.52,.99-2.52,3.07,0,1.92,.89,3.08,2.58,3.08,1.53,0,2.06-.95,2.34-2.1l2,.48c-.38,2.2-1.71,3.53-4.32,3.53-2.98,0-4.82-1.73-4.82-4.92s1.87-5.06,4.78-5.06c2.72,0,3.95,1.29,4.34,3.55l-2.04,.38c-.28-1.21-.85-2.02-2.34-2.02Z"/><path class="d" d="M173.67,265.76h-2.16v-12.95h2.16v5.97h.16c.55-1.73,1.69-2.74,3.35-2.74,1.96,0,2.88,1.33,2.88,3.39v6.33h-2.16v-5.77c0-1.15-.52-2-1.79-2-1.47,0-2.44,.97-2.44,2.4v5.36Z"/><path class="d" d="M184.38,258.74h.14c.5-1.63,1.55-2.7,3.27-2.7,2.24,0,3.49,1.77,3.49,5s-1.31,4.98-3.45,4.98c-1.73,0-2.84-1.13-3.31-2.78h-.14v2.52h-2.16v-12.95h2.16v5.93Zm4.76,2.3c0-2.06-.73-3.04-2.32-3.04-1.49,0-2.44,1.05-2.44,2.7v.73c0,1.59,.97,2.68,2.42,2.68,1.59,0,2.34-1.03,2.34-3.06Z"/><path class="d" d="M192.45,261c0-3.13,1.87-4.96,4.82-4.96s4.78,1.83,4.78,4.96-1.77,5.02-4.78,5.02-4.82-1.92-4.82-5.02Zm2.18-.02c0,1.96,.81,3.17,2.62,3.17s2.64-1.21,2.64-3.17-.89-3.11-2.64-3.11-2.62,1.15-2.62,3.11Z"/><path class="d" d="M207.63,261.77h-.28l-2.04,3.99h-2.38v-.22l3.04-4.7-3.02-4.34v-.22h2.46l2.2,3.91h.24l2.06-3.91h2.28v.22l-2.94,4.64,3.02,4.4v.22h-2.44l-2.2-3.99Z"/><path class="d" d="M218.5,261.6v.22h-2.1v-.34c0-1.23,.46-1.86,1.75-2.5,1.23-.58,1.71-1.03,1.71-2,0-1.11-.73-1.67-2.04-1.67-1.77,0-2.5,1.07-2.74,2.86l-2.14-.3c.34-2.7,1.75-4.44,4.9-4.44,2.76,0,4.27,1.17,4.27,3.39,0,1.98-1.15,2.78-2.6,3.37-.87,.36-1.03,.91-1.03,1.41Zm.2,1.69v2.46h-2.52v-2.46h2.52Z"/></g></g></g></g></g></svg>