<svg xmlns="http://www.w3.org/2000/svg" viewBox="0 0 213.16 39.01"><defs><style>.cls-1{fill:#f2eee2;}</style></defs><g id="New_Lunch_B" data-name="New Lunch B"><path class="cls-1" d="M0,20.22C0,8.5,6.84,1.67,17.66,1.67c9.4,0,15.05,5,16.12,13.85l-8.15,1.61c-.95-5.24-3.27-8-8.21-8C11.12,9.16,8.5,14,8.5,20.22c0,7.08,2.68,11.42,8.86,11.42,5.24,0,7.38-2.8,8.45-8.09l8.09,1.37C32.83,33.84,26.94,39,17.42,39,6.36,39,0,32,0,20.22Z"/><path class="cls-1" d="M36.87,24.08c0-9.39,5.59-14.86,14.56-14.86,8.81,0,14.46,5.47,14.46,14.86S60.41,39,51.43,39C42.28,39,36.87,33.36,36.87,24.08ZM45,24c0,5.11,1.85,8.08,6.43,8.08s6.42-3,6.42-8.08-2-8-6.42-8S45,18.91,45,24Z"/><path class="cls-1" d="M76.93,38.18H68.84V0h8.09Z"/><path class="cls-1" d="M89.91,38.18H81.82V0h8.09Z"/><path class="cls-1" d="M111.5,31.46h-.71c-1.43,4.46-4.4,7.31-9.22,7.31s-8.27-2.44-8.27-8c0-5.05,3-8.56,10.41-8.56h7.37v-2c0-2.92-1.24-4.58-4.34-4.58-2.67,0-4.22,1.31-4.75,4L94.37,18c1-5.12,4.88-8.74,12.67-8.74,8.56,0,12.07,3.92,12.07,11v17.9H111.5Zm-.42-4.1V26.22h-5.82c-2.62,0-4.29,1.19-4.29,3.16,0,1.78,1,3.21,4.11,3.21C108.77,32.59,111.08,30.39,111.08,27.36Z"/><path class="cls-1" d="M125,16.41H121.5V10H125V2.74H133V10h7.43v6.42H133V28c0,2.26.83,3.39,3.27,3.39a12.46,12.46,0,0,0,3.68-.71l.9,7.25A19.19,19.19,0,0,1,134.22,39c-6.54,0-9.27-4.34-9.27-9.69Z"/><path class="cls-1" d="M144.06,6V.18h8.44V6Zm.17,32.17V10h8.09V38.18Z"/><path class="cls-1" d="M155.2,24.08c0-9.39,5.58-14.86,14.56-14.86,8.81,0,14.46,5.47,14.46,14.86S178.74,39,169.76,39C160.61,39,155.2,33.36,155.2,24.08Zm8.08,0c0,5.11,1.85,8.08,6.43,8.08s6.42-3,6.42-8.08-2-8-6.42-8S163.28,18.91,163.28,24Z"/><path class="cls-1" d="M195.14,38.18h-8.09V10H195v7.55h.54c1.66-5.47,5.11-8.32,9.51-8.32,5.41,0,8.15,3.74,8.15,9.87V38.18h-8.09V21.35c0-2.86-1.31-4.82-4.28-4.82-3.45,0-5.65,2.44-5.65,5.95Z"/></g></svg>